<svg width="600" height="420" viewBox="0 0 600 420" fill="none" xmlns="http://www.w3.org/2000/svg">
  <defs>
    <linearGradient id="grad1" x1="0" y1="0" x2="1" y2="1">
      <stop offset="0%" stop-color="#4ade80" />
      <stop offset="100%" stop-color="#3b82f6" />
    </linearGradient>
    <linearGradient id="grad2" x1="0" y1="0" x2="1" y2="1">
      <stop offset="0%" stop-color="#22d3ee" />
      <stop offset="100%" stop-color="#8b5cf6" />
    </linearGradient>
    <linearGradient id="grad3" x1="0" y1="0" x2="1" y2="1">
      <stop offset="0%" stop-color="#facc15" />
      <stop offset="100%" stop-color="#f97316" />
    </linearGradient>
    <filter id="shadow" x="-20%" y="-20%" width="140%" height="140%">
      <feDropShadow dx="0" dy="12" stdDeviation="18" flood-color="rgba(15, 23, 42, 0.15)" />
    </filter>
  </defs>
  <rect x="24" y="30" width="552" height="360" rx="28" fill="white" filter="url(#shadow)" />
  <rect x="50" y="56" width="120" height="16" rx="8" fill="#e2e8f0" />
  <rect x="50" y="86" width="180" height="12" rx="6" fill="#cbd5f5" />
  <rect x="50" y="110" width="140" height="12" rx="6" fill="#e2e8f0" />

  <rect x="50" y="150" width="220" height="180" rx="20" fill="#f0fdf4" />
  <path d="M80 300V196L110 230L140 214L170 250L200 210L230 270" stroke="url(#grad1)" stroke-width="14" stroke-linecap="round" stroke-linejoin="round"/>
  <circle cx="110" cy="230" r="10" fill="#4ade80" opacity="0.85"/>
  <circle cx="170" cy="250" r="10" fill="#4ade80" opacity="0.85"/>
  <circle cx="200" cy="210" r="10" fill="#4ade80" opacity="0.85"/>
  <text x="70" y="326" fill="#134e4a" font-family="Poppins, Arial, sans-serif" font-size="14" font-weight="600">Emission trend</text>

  <rect x="300" y="150" width="220" height="110" rx="20" fill="#eff6ff" />
  <path d="M320 230H500" stroke="#cbd5f5" stroke-width="10" stroke-linecap="round"/>
  <path d="M320 210H450" stroke="#60a5fa" stroke-width="10" stroke-linecap="round"/>
  <path d="M320 190H420" stroke="#3b82f6" stroke-width="10" stroke-linecap="round"/>
  <text x="320" y="176" fill="#1e3a8a" font-family="Poppins, Arial, sans-serif" font-size="14" font-weight="600">Top sources</text>

  <rect x="300" y="280" width="220" height="80" rx="20" fill="#fff7ed" />
  <circle cx="340" cy="320" r="28" fill="url(#grad3)" opacity="0.9" />
  <path d="M340 300L345 310H335L340 300Z" fill="white"/>
  <text x="380" y="312" fill="#7c2d12" font-family="Poppins, Arial, sans-serif" font-size="18" font-weight="700">EcoScore 78</text>
  <text x="380" y="334" fill="#b45309" font-family="Poppins, Arial, sans-serif" font-size="12" font-weight="500">On track with new actions</text>

  <rect x="460" y="60" width="80" height="28" rx="14" fill="url(#grad2)" opacity="0.9"/>
  <text x="474" y="80" fill="white" font-family="Poppins, Arial, sans-serif" font-size="12" font-weight="600">Live</text>
</svg>

